<?xml version="1.0" encoding="utf-8"?>
<!-- Generator: Adobe Illustrator 25.2.0, SVG Export Plug-In . SVG Version: 6.00 Build 0)  -->
<svg version="1.1" id="Layer_1" xmlns="http://www.w3.org/2000/svg" xmlns:xlink="http://www.w3.org/1999/xlink" x="0px" y="0px"
	 viewBox="0 0 2000 1000" style="enable-background:new 0 0 2000 1000;" xml:space="preserve">
<style type="text/css">
	.st0{fill:#FFFFFF;}
</style>
<g>
	<g>
		<path class="st0" d="M1000,53.78c-246.68,0-447.37,200.69-447.37,447.37C564.87,797.84,782.43,946.21,1000,946.22
			c217.57-0.01,435.13-148.38,447.37-445.06C1447.37,254.47,1246.68,53.78,1000,53.78z M1000,90.72
			C1000,90.72,1000,90.72,1000,90.72c136.28,0,235.18,91.05,235.18,216.5c0,81.83-32.09,118.84-57.87,148.57
			c-16.87,19.45-31.44,36.25-31.44,59.84c0,32.26,12.3,43.07,22.19,51.76c7.07,6.22,10.97,9.65,10.97,22.98
			c0,5.11-3.07,10.06-9.03,14.65c-0.57,0.37-1.13,0.77-1.49,1.12c-0.48,0.34-1.02,0.68-1.53,1.02c-0.51,0.29-1.01,0.61-1.32,0.87
			c-29.38,16.87-75.11,22.77-106.34,28.57c-0.16-0.02-0.32-0.02-0.63-0.03c-4.22-0.2-7.77-2.8-10.54-7.73
			c-8.28-14.75-7.53-48.96,20.1-78.86c4.06-4.4,4.37-11.04,0.74-15.8c-3.48-4.67-10.31-6.21-15.45-3.43
			c-0.28,0.15-28.46,14.67-53.55,14.67c-25.09,0-53.27-14.53-53.55-14.67c-5.14-2.78-11.97-1.24-15.45,3.43
			c-3.64,4.76-3.33,11.4,0.74,15.8c27.63,29.9,28.38,64.11,20.1,78.86c-2.77,4.93-6.31,7.52-10.54,7.73c-0.32,0-0.47,0.01-0.63,0.03
			c-31.23-5.79-76.96-11.69-106.34-28.57c-0.31-0.26-0.81-0.57-1.32-0.87c-0.51-0.34-1.04-0.68-1.53-1.02
			c-0.36-0.35-0.92-0.75-1.49-1.12c-5.96-4.59-9.03-9.54-9.03-14.65c0-13.33,3.9-16.76,10.97-22.98
			c9.88-8.69,22.19-19.5,22.19-51.76c0-23.59-14.57-40.39-31.44-59.84c-25.78-29.73-57.87-66.74-57.87-148.57
			C764.82,181.77,863.72,90.72,1000,90.72C1000,90.72,1000,90.72,1000,90.72z M1285.3,501.82c0-47.66-11.73-92.56-32.4-132.05
			c6.03-24.11,8.66-59.81,5.56-88.41c2.16-0.67,4.27-1.46,6.3-2.46c3.44,3.96,7.63,9.57,10.88,13.63
			c-10.39,12.16-13.2,32.66-4.67,45.51l7.32,12.77l6.71,13.1l6.07,13.4l5.43,13.68c4.74,14.66,22.56,25.3,38.55,24.74
			c1.29,5.66,2.71,11.26,3.86,17.01c-10.62,4.91-18.96,14.15-22.63,25.25c-2.96,8.01-0.69,19.47-0.4,28.39l0.38,14.74l-0.38,14.79
			c-0.28,8.92-2.56,20.38,0.4,28.4c3.68,11.14,12,20.35,22.63,25.28c-1.15,5.74-2.56,11.34-3.86,17.01
			c-15.93-0.62-33.81,10.1-38.52,24.67l-5.43,13.67l-6.07,13.41l-6.7,13.1l-7.33,12.78c-8.56,12.92-5.77,33.35,4.64,45.57
			c-3.27,4.08-7.43,9.65-10.88,13.63c-12.29-6.2-28.83-6.19-40,1.29c-6.39,4.07-10.48,9.58-16.34,14.19
			c-3.68,3.17-7.37,6.53-11.31,9.47c-7.26,5.86-15.28,11.67-23.8,17.27c-13.54,8.32-19.45,27.99-15.52,43.1l-7.72,3.96l-7.98,3.61
			c-6.71-8.72-18.51-15.68-29.69-16.3c-10.47-0.88-17.66,3.44-27.09,5.66l-4.25-9.76c4.21-10.39,9.75-18.77,16.21-25.88
			C1206.92,730.26,1285.3,625.23,1285.3,501.82z M1241.59,214.2c1.7,1.45,4.01,3.45,5.71,4.93c4.47,3.73,8.68,7.84,12.85,11.81
			c5.15,4.68,7.28,12.36,5.35,19.09l-7.07-7.41l-9.22-8.79c-0.18-0.18-0.39-0.33-0.59-0.49
			C1246.57,226.82,1244.19,220.46,1241.59,214.2z M1316.14,317.7l-3.2-5.56c-2.74-4.4-6.16-9.66-8.96-14.02
			c6.93-0.38,13.85,3.52,17.45,9.46l8.69,15.16l7.97,15.55l7.22,15.94c2.15,5.2,4.38,10.99,6.46,16.26
			c2.45,6.49,1.18,14.35-3.47,19.59c-2.47-7.26-4.72-14.56-7.73-21.73c-5.09-12.12-22.78-4.74-18.46,7.28
			c2.81,6.67,4.94,13.57,7.25,20.36c-6.45-1.29-12.03-5.65-14.27-11.9l-5.78-14.53l-6.45-14.25l-7.14-13.92l-7.77-13.55
			c-3.49-5.51-3.42-12.68-0.39-18.55c2.78,4.35,5.66,8.75,8.39,13.12l3.03,5.28C1305.69,338.51,1322.47,329.21,1316.14,317.7z
			 M1362.2,452.19l-0.26-2.04c13.68,5.58,11.81,21.5,12.81,33.52l0.44,17.44l-0.44,17.51c-1,12.04,0.87,27.97-12.81,33.54
			c0.97-7.53,2.01-15.2,2.44-22.89c0.73-13.14-18.43-14.18-19.78-1.47c-0.39,7.21-1.39,14.43-2.29,21.52
			c-10.93-7.4-7.07-21.34-6.62-32.54l0.39-15.67l-0.4-15.61c-0.45-11.17-4.3-25.12,6.62-32.51c0.9,7.1,1.9,14.3,2.29,21.56
			c1.41,12.61,20.49,11.64,19.78-1.47C1363.99,466.06,1363.08,459.01,1362.2,452.19z M1317.11,676.98
			c-2.02-8.19-14.24-9.62-18.13-2.33c0,0-3.02,5.25-3.02,5.25c-2.75,4.4-5.61,8.78-8.4,13.15c-3.03-5.89-3.1-13.03,0.42-18.59
			l7.78-13.58l7.13-13.93l6.45-14.25l5.76-14.5c2.22-6.21,7.82-10.59,14.25-11.87c-2.32,6.81-4.44,13.69-7.26,20.4
			c-4.29,11.99,13.39,19.35,18.46,7.25c3.01-7.18,5.27-14.48,7.74-21.75c4.64,5.22,5.91,13.11,3.48,19.55
			c-2.08,5.25-4.33,11.08-6.45,16.24l-7.21,15.92l-7.96,15.55l-8.7,15.18c-3.63,5.99-10.53,9.87-17.48,9.5
			c2.81-4.37,6.22-9.62,8.97-14.04C1315.06,686.42,1318.78,681.49,1317.11,676.98z M1207.68,789.76c-3.19-4.44-9.29-5.55-13.57-2.51
			c-4.85,3.24-10.33,6.66-15.27,9.82l-3.08,1.77c-0.18-6.47,3.28-13.51,8.4-16.59c9.08-5.97,17.6-12.16,25.28-18.35
			c4.18-3.14,8.1-6.68,12.01-10.05c4.05-3.36,7.78-7.02,11.52-10.59c4.82-4.51,11.7-6.15,18.06-4.53l-6.57,6.9l-8.84,8.43
			c-3.8,3.75-4,9.82-0.46,13.82c3.46,4.09,10.27,4.49,14.04,0.64c0,0,9.29-8.86,9.29-8.86l7.02-7.35c1.93,6.73-0.19,14.4-5.35,19.09
			c-4.18,3.98-8.38,8.08-12.87,11.83c-4.37,3.76-8.74,7.7-13.4,11.23c-8.65,6.96-18.16,13.86-28.23,20.48
			c-6.41,4.04-13.63,4.44-19.85,1.03l3.31-1.9c5.26-3.35,11-6.95,16.18-10.4C1209.73,800.62,1210.91,794.06,1207.68,789.76z
			 M1105.9,853l-1.02-2.34c1.22,0.1,2.47,0,3.72-0.35c7.24-2.51,14.47-4.7,21.67-7.54c-1.52,11.65-13.54,15.64-23.76,18.15
			C1107.16,858.34,1107.01,855.56,1105.9,853z M1102.7,831.36c-1.97,0.56-3.61,1.74-4.8,3.26l-4.61-10.6
			c3.87-1.09,7.84-2.18,11.68-3.59c5.47-2.06,13.29-0.38,18.2,3.81C1116.43,826.9,1109.46,829,1102.7,831.36z M1059.88,747.28
			l-48.61-111.68c-1.95-4.49-6.38-7.39-11.27-7.39s-9.32,2.9-11.27,7.39l-48.61,111.68c-23.5-23.65-52.85-29.94-52.85-29.94
			c16.67,11.72,28.07,36.06,35.53,48.19c-16.73-19.27-40.94-30.8-66.81-44.54c-57.34-30.46-41.21-75.55-41.21-75.55
			c9.63,48.86,68.74,73.38,110,45.25c-5.35,11.2-10.4,18.77-10.4,18.77c35.12-15.3,51.71-43.53,63.12-78.3l-0.04,0.03
			c6.14-18.61,4.12-42.74-5.83-65.03c10.39,2.56,19.38,3.84,28.37,3.84c8.99,0,17.98-1.28,28.37-3.84
			c-9.94,22.29-11.96,46.42-5.83,65.03l-0.04-0.03c11.41,34.77,28,63,63.12,78.3c0,0-5.06-7.57-10.4-18.77
			c41.26,28.13,100.37,3.61,110-45.25c0,0,16.14,45.09-41.21,75.55c-25.87,13.74-50.09,25.27-66.81,44.54
			c7.45-12.13,18.86-36.47,35.53-48.19C1112.73,717.35,1083.39,723.63,1059.88,747.28z M893.49,860.91
			c-10.21-2.51-22.24-6.5-23.76-18.15c7.2,2.85,14.43,5.03,21.67,7.54c1.25,0.36,2.5,0.46,3.72,0.35L894.1,853
			C892.99,855.56,892.84,858.34,893.49,860.91z M876.83,824.24c4.91-4.18,12.73-5.86,18.2-3.81c3.85,1.4,7.82,2.5,11.68,3.59
			l-4.61,10.6c-1.19-1.52-2.83-2.7-4.8-3.26C890.54,829,883.57,826.9,876.83,824.24z M887.61,800.01
			c-11.19,0.62-22.98,7.58-29.69,16.3l-7.98-3.61l-7.72-3.96c3.93-15.11-1.98-34.78-15.52-43.1c-8.52-5.6-16.54-11.42-23.8-17.27
			c-3.94-2.94-7.63-6.3-11.31-9.47c-5.86-4.61-9.95-10.12-16.34-14.19c-11.17-7.47-27.71-7.49-40-1.29
			c-3.46-3.98-7.62-9.54-10.88-13.63c10.41-12.22,13.2-32.65,4.64-45.57l-7.33-12.78l-6.71-13.1l-6.07-13.41l-5.43-13.67
			c-4.71-14.58-22.6-25.29-38.52-24.67c-1.29-5.66-2.71-11.26-3.86-17.01c10.64-4.92,18.95-14.14,22.63-25.28
			c2.96-8.01,0.68-19.47,0.39-28.4l-0.38-14.79l0.38-14.74c0.29-8.92,2.56-20.38-0.4-28.39c-3.67-11.1-12.01-20.35-22.63-25.25
			c1.15-5.74,2.56-11.34,3.86-17.01c15.98,0.57,33.81-10.08,38.55-24.74l5.43-13.68l6.07-13.4l6.71-13.1l7.32-12.77
			c8.52-12.85,5.71-33.35-4.67-45.51c3.25-4.06,7.44-9.67,10.88-13.63c2.03,1,4.14,1.8,6.3,2.46c-3.1,28.6-0.47,64.3,5.56,88.41
			c-20.67,39.49-32.4,84.39-32.4,132.05c0,123.4,78.38,228.43,188.04,268.21c6.46,7.1,12,15.49,16.21,25.88l-4.25,9.76
			C905.27,803.45,898.08,799.13,887.61,800.01z M794.71,803.64c5.18,3.45,10.92,7.05,16.18,10.4l3.31,1.9
			c-6.22,3.42-13.43,3.02-19.85-1.03c-10.07-6.63-19.58-13.52-28.23-20.48c-4.66-3.52-9.03-7.46-13.4-11.23
			c-4.49-3.75-8.69-7.85-12.87-11.83c-5.16-4.68-7.28-12.36-5.35-19.09l7.02,7.35c0,0,9.29,8.86,9.29,8.86
			c3.77,3.85,10.58,3.45,14.04-0.64c3.54-4,3.33-10.07-0.46-13.82l-8.84-8.43l-6.57-6.9c6.37-1.62,13.24,0.02,18.06,4.53
			c3.74,3.57,7.47,7.23,11.52,10.59c3.91,3.37,7.82,6.91,12.01,10.05c7.68,6.19,16.2,12.37,25.28,18.35
			c5.12,3.08,8.58,10.12,8.4,16.59l-3.08-1.77c-4.94-3.16-10.42-6.58-15.27-9.82c-4.28-3.04-10.38-1.93-13.57,2.51
			C789.09,794.06,790.27,800.62,794.71,803.64z M687.04,690.14c2.75,4.42,6.16,9.67,8.97,14.04c-6.94,0.37-13.84-3.51-17.48-9.5
			l-8.7-15.18l-7.96-15.55l-7.21-15.92c-2.13-5.16-4.37-10.99-6.45-16.24c-2.43-6.45-1.16-14.33,3.48-19.55
			c2.47,7.26,4.73,14.57,7.74,21.75c5.07,12.09,22.75,4.74,18.46-7.25c-2.82-6.71-4.94-13.59-7.26-20.4
			c6.44,1.28,12.04,5.66,14.25,11.87l5.76,14.5l6.45,14.25l7.13,13.93l7.78,13.58c3.52,5.56,3.45,12.7,0.42,18.59
			c-2.79-4.37-5.65-8.75-8.4-13.15c0,0-3.02-5.25-3.02-5.25c-3.89-7.29-16.11-5.86-18.13,2.33
			C681.22,681.49,684.94,686.42,687.04,690.14z M638.06,552.16c-13.68-5.57-11.81-21.5-12.81-33.54l-0.44-17.51l0.44-17.44
			c1-12.03-0.87-27.95,12.81-33.52l-0.26,2.04c-0.88,6.82-1.79,13.87-2.18,20.89c-0.7,13.11,18.38,14.08,19.78,1.47
			c0.39-7.25,1.39-14.46,2.29-21.56c10.92,7.39,7.07,21.33,6.62,32.51l-0.4,15.61l0.4,15.67c0.45,11.2,4.31,25.14-6.62,32.54
			c-0.9-7.09-1.9-14.31-2.29-21.52c-1.35-12.71-20.51-11.67-19.78,1.47C636.05,536.96,637.09,544.63,638.06,552.16z M701.02,327.66
			l3.03-5.28c2.73-4.37,5.6-8.77,8.39-13.12c3.03,5.87,3.1,13.04-0.39,18.55l-7.77,13.55l-7.14,13.92l-6.45,14.25l-5.78,14.53
			c-2.23,6.25-7.82,10.61-14.27,11.9c2.31-6.79,4.44-13.69,7.25-20.36c4.32-12.01-13.37-19.4-18.46-7.28
			c-3.01,7.17-5.27,14.48-7.73,21.73c-4.64-5.24-5.91-13.1-3.47-19.59c2.08-5.26,4.31-11.05,6.46-16.26l7.22-15.94l7.97-15.55
			l8.69-15.16c3.61-5.94,10.52-9.83,17.45-9.46c-2.8,4.36-6.22,9.61-8.96,14.02l-3.2,5.56
			C677.53,329.21,694.31,338.51,701.02,327.66z M739.85,230.94c4.17-3.98,8.38-8.09,12.85-11.81c1.7-1.47,4.01-3.48,5.71-4.93
			c-2.6,6.26-4.98,12.62-7.03,19.14c-0.2,0.16-0.4,0.31-0.59,0.49l-9.22,8.79l-7.07,7.41C732.57,243.29,734.7,235.62,739.85,230.94z
			 M838.33,637.5c26.54,11.01,58.17,16.17,85.05,21.05C898.77,692.75,844.35,679,838.33,637.5z M1076.62,658.55
			c26.88-4.89,58.51-10.04,85.05-21.05C1155.65,679,1101.23,692.75,1076.62,658.55z M971.14,922.8
			c-455.19-37.69-539.8-658.43-116-818.73c-29.17,17.11-54.94,40.57-73.92,68.25c-9.78,6.52-19.02,13.25-27.48,20.06
			c-4.87,3.69-9.49,7.83-14.07,11.79c-6.54,5.85-13.95,11.93-19.08,18.83c-8.94,13.04-9.46,30.41-0.45,43.05
			c-3.81,4.39-8.08,10.11-11.61,14.54c-17.21-7.1-36.99,0.32-46.94,16.75l-9.14,15.95l-8.39,16.38l-7.59,16.77
			c-2.31,5.56-4.59,11.51-6.8,17.1c-6.7,18.19-0.23,38.03,16.1,47.23c-1.39,6.04-2.89,12-4.11,18.15
			c-12.42,0.68-24.41,8.54-30.09,19.62c-6.21,11.46-5,22.17-6.11,34.27l0,0.03l-0.46,18.29l0.46,18.37
			c1.11,12.11-0.1,22.81,6.11,34.28c5.7,11.12,17.67,18.95,30.1,19.64c1.23,6.15,2.72,12.1,4.11,18.15
			c-16.29,9.16-22.8,29.04-16.12,47.16c2.21,5.59,4.51,11.59,6.8,17.11l7.58,16.74l8.38,16.38l9.15,15.96
			c9.99,16.49,29.7,23.9,46.97,16.8c3.52,4.41,7.81,10.16,11.61,14.54c-9,12.6-8.49,30.02,0.43,43.03
			c9.31,11.54,21.71,21.15,33.21,30.67c13.05,9.41,28.57,24.34,45.16,27.8c12.68,2.11,25.41-1.69,34.14-11.41l8.25,4.23l8.51,3.86
			c-2.18,12.82,2.77,25.25,12.32,33.81c7.89,7.5,21.51,10.42,32.11,13.53c8.88,2.63,17.87,4.49,26.83,6.52l8.52,1.52l31.9,22.25
			v-29.96l-40.88-28.5l15.78-36.26c2.87,6.72,8.7,11.86,15.83,13.83v22.81h18.87V922.8z M947.35,807.86
			c0.39-14.95,22.29-14.95,22.68,0C969.64,822.81,947.74,822.81,947.35,807.86z M988.66,760.42c0.2-7.47,5.77-11.21,11.34-11.21
			c5.57,0,11.14,3.74,11.34,11.21c-0.2,7.48-5.77,11.21-11.34,11.21S988.86,767.9,988.66,760.42z M1016.02,922.8h-9.6V783.71
			c26.75-7.77,21.74-46.95-6.42-47.47c-28.16,0.51-33.17,39.7-6.42,47.47V922.8h-9.6v-81.69h-18.87v-9.97
			c31.6-10.09,17.18-56.06-14.67-45.98L1000,671.29l49.56,113.87c-31.86-10.07-46.27,35.89-14.67,45.98v9.97h-18.87V922.8z
			 M1052.65,807.86c-0.39,14.95-22.29,14.95-22.68,0C1030.36,792.91,1052.26,792.91,1052.65,807.86z M1028.86,922.8v-68.85h18.87
			v-22.81c7.13-1.97,12.96-7.11,15.83-13.83l15.78,36.26l-40.88,28.5v29.96l31.91-22.25l8.52-1.52c8.96-2.03,17.95-3.89,26.83-6.52
			c10.6-3.11,24.22-6.03,32.11-13.53c9.55-8.56,14.5-20.99,12.32-33.81l8.51-3.86l8.25-4.23c8.73,9.73,21.46,13.52,34.14,11.41
			c16.59-3.46,32.11-18.39,45.16-27.8c11.5-9.52,23.9-19.14,33.21-30.67c8.92-13.01,9.43-30.42,0.43-43.03
			c3.81-4.38,8.09-10.13,11.61-14.54c17.28,7.1,36.98-0.32,46.97-16.8l9.15-15.96l8.38-16.38l7.58-16.74
			c2.29-5.52,4.6-11.53,6.8-17.11c6.69-18.13,0.17-38.01-16.12-47.16c1.39-6.04,2.89-12,4.11-18.15c12.43-0.69,24.4-8.52,30.1-19.64
			c6.21-11.47,4.99-22.17,6.11-34.28l0.46-18.37l-0.46-18.29l0-0.03c-1.11-12.1,0.1-22.8-6.11-34.27
			c-5.68-11.08-17.68-18.94-30.09-19.62c-1.23-6.15-2.72-12.1-4.11-18.15c16.32-9.2,22.8-29.03,16.1-47.23
			c-2.21-5.59-4.5-11.54-6.8-17.1l-7.59-16.77l-8.39-16.38l-9.14-15.95c-9.95-16.44-29.73-23.85-46.94-16.75
			c-3.54-4.43-7.8-10.14-11.61-14.54c9.01-12.64,8.49-30.02-0.45-43.05c-5.13-6.89-12.54-12.98-19.08-18.83
			c-4.59-3.96-9.21-8.1-14.07-11.79c-8.46-6.81-17.71-13.54-27.48-20.06c-18.97-27.68-44.74-51.15-73.91-68.25
			C1568.66,264.37,1484.05,885.11,1028.86,922.8z"/>
		<path class="st0" d="M851.06,357.74c-32.59,37.13-8.33,94.42,51.21,109.56c29.6,7.71,40.37,20.58,49.86,31.93
			c10.36,12.37,21.06,25.16,47.86,25.16c26.8,0,37.5-12.79,47.86-25.16c9.5-11.35,20.27-24.23,49.86-31.93
			c59.54-15.14,83.8-72.43,51.21-109.56c39.5-23.96,51.8-86.53,12.13-114.89c13.31-41.51-5.25-78.65-63.67-81.07
			c-11.95-31.35-41.17-44.75-97.4-44.75c-56.23,0-85.45,13.4-97.4,44.75c-58.42,2.42-76.98,39.57-63.67,81.07
			C799.27,271.2,811.56,333.78,851.06,357.74z M1012.29,141.86c60.71,2.67,63.74,25.84,66.67,48.26l1.59-0.2l-1.59,0.21
			c1.95,14.89,7.74,25.69,17.23,32.09c12.49,8.42,25.99,5.26,27.49,4.87c6.42-1.52,10.69-8.64,8.89-15
			c-1.49-6.39-8.54-10.62-14.82-8.85c-0.04,0.01-4.54,0.91-7.94-1.48c-4.18-2.93-5.83-9.78-6.51-14.99
			c42.76,3.16,46.04,38.59,24.64,65.76c-20.42,22.79-15.36,49.33,2.73,61.35c13.82,8.43,26.69-11.49,13.36-20.62
			c-10.49-8.03-1.71-19.95,5.36-28.29c22.12,20.02,9.85,57.89-14.18,72.37c-48.45,30.59-35.81,69.98-35.24,71.64
			c5.52,15.22,28.04,7.78,23.35-7.68c-0.16-0.53-3.74-12.85,7.13-27.33c21.12,23.29,0.78,59.92-38.92,69.56
			c-37.2,9.69-51.83,27.17-62.53,39.95c-5.97,7.14-10.1,12.07-16.72,14.52v-33.32c0-10.56,32.5-38.47,48.23-51.99
			c16.76-15.23,36.06-26.69,35.71-49.45c-0.31-18.54-14.26-32.3-15.84-33.81c-4.88-4.63-12.64-4.43-17.3,0.43
			c-4.66,4.86-4.52,12.64,0.33,17.35c2.12,2.05,8.17,9.49,8.25,16.52c-0.42,9.03-9.58,14.74-16.65,21.07
			c-1.18,1.06-3.08,0.62-3.64-0.86c-13.1-34.64,5.25-66.11,20.2-82.37c15.78-17.09,33.05-33.44,35-35.28
			c4.94-4.64,5.19-12.43,0.55-17.37c-4.64-4.94-12.43-5.18-17.37-0.55c-0.33,0.14-17.91,16.98-33.48,33.57
			c-1.54,1.64-4.3,0.26-3.86-1.95c1.14-5.63,4.73-14.75,7.96-29.58c12.34-56.75-44.71-61.97-48.08-81.96
			C1012.29,168.41,1012.29,141.86,1012.29,141.86z M850.6,264.96c7.07,8.34,15.85,20.26,5.36,28.29
			c-13.32,9.14-0.45,29.05,13.36,20.62c18.09-12.01,23.16-38.56,2.73-61.35c-21.4-27.16-18.12-62.59,24.64-65.76
			c-0.67,5.21-2.32,12.06-6.51,14.99c-3.41,2.39-7.9,1.49-7.94,1.48c-6.28-1.77-13.33,2.46-14.82,8.85
			c-1.79,6.36,2.47,13.48,8.89,15c1.5,0.39,15,3.55,27.49-4.87c9.49-6.4,15.28-17.2,17.23-32.09l-1.59-0.21l1.59,0.2
			c2.93-22.42,5.97-45.59,66.67-48.26c0,0,0,26.55,0,26.55c-3.37,19.99-60.42,25.21-48.08,81.96c3.22,14.82,6.82,23.95,7.96,29.58
			c0.45,2.21-2.31,3.59-3.86,1.95c-15.58-16.59-33.15-33.44-33.48-33.57c-4.93-4.63-12.73-4.38-17.37,0.55
			c-4.64,4.94-4.39,12.73,0.55,17.37c1.95,1.84,19.22,18.19,35,35.28c14.94,16.26,33.3,47.73,20.2,82.37
			c-0.56,1.48-2.46,1.92-3.64,0.86c-7.07-6.33-16.24-12.04-16.65-21.07c0.08-7.03,6.13-14.47,8.25-16.52
			c4.84-4.71,4.99-12.49,0.33-17.35c-4.67-4.86-12.43-5.05-17.3-0.43c-1.59,1.51-15.53,15.27-15.84,33.81
			c-0.34,22.76,18.95,34.22,35.71,49.45c15.74,13.52,48.23,41.43,48.23,51.99v33.32c-6.62-2.45-10.75-7.38-16.72-14.52
			c-10.69-12.77-25.32-30.26-62.53-39.95c-39.7-9.64-60.05-46.27-38.92-69.56c10.87,14.48,7.3,26.8,7.13,27.33
			c-4.69,15.46,17.83,22.89,23.35,7.68c0.56-1.66,13.2-41.04-35.24-71.64C840.74,322.85,828.48,284.98,850.6,264.96z"/>
	</g>
</g>
</svg>
