<?xml version="1.0" standalone="no"?>
<!DOCTYPE svg PUBLIC "-//W3C//DTD SVG 20010904//EN"
 "http://www.w3.org/TR/2001/REC-SVG-20010904/DTD/svg10.dtd">
<svg version="1.0" xmlns="http://www.w3.org/2000/svg"
 width="2000.000000pt" height="1000.000000pt" viewBox="0 0 2000.000000 1000.000000"
 preserveAspectRatio="xMidYMid meet">
<metadata>
Created by potrace 1.16, written by Peter Selinger 2001-2019
</metadata>
<g transform="translate(0.000000,1000.000000) scale(0.100000,-0.100000)"
fill="#000000" stroke="none">
<path d="M9720 9454 c-19 -2 -91 -9 -160 -15 -69 -6 -203 -24 -299 -40 -1697
-283 -3091 -1530 -3564 -3189 -215 -752 -220 -1497 -16 -2330 49 -199 156
-526 234 -709 357 -846 950 -1531 1725 -1994 1329 -792 3044 -851 4442 -151
1259 630 2085 1796 2322 3275 51 314 60 436 60 749 0 370 -26 603 -108 956
-361 1561 -1567 2833 -3108 3278 -254 73 -487 120 -758 152 -127 15 -682 28
-770 18z m551 -374 c479 -48 904 -205 1249 -461 103 -77 290 -257 373 -359
301 -373 457 -831 457 -1344 0 -501 -124 -896 -391 -1248 -32 -42 -115 -143
-185 -225 -272 -319 -322 -425 -311 -653 11 -208 47 -290 191 -437 55 -57 107
-115 114 -130 8 -15 17 -54 20 -88 7 -97 -26 -150 -142 -219 -157 -94 -384
-160 -851 -246 -204 -38 -211 -38 -245 -22 -71 35 -110 133 -110 276 0 181 69
365 192 516 67 82 78 102 78 147 0 50 -34 96 -84 113 -37 12 -36 12 -211 -58
-177 -72 -250 -87 -415 -87 -165 0 -238 15 -415 87 -174 70 -174 70 -210 58
-58 -19 -95 -78 -87 -140 1 -14 30 -59 63 -100 143 -178 209 -346 209 -536 0
-143 -39 -241 -110 -276 -34 -16 -41 -16 -277 27 -580 107 -882 222 -949 363
-20 43 -15 141 10 189 8 17 54 69 101 114 102 99 139 153 173 257 23 68 26 94
26 222 1 140 -1 148 -30 222 -43 105 -118 214 -279 403 -223 261 -308 384
-393 564 -153 327 -215 770 -167 1183 89 763 560 1385 1281 1693 202 87 478
160 694 184 52 6 109 13 125 15 70 8 411 5 506 -4z m1340 -186 c714 -300 1329
-768 1760 -1339 659 -872 946 -1990 798 -3110 -215 -1632 -1271 -2942 -2780
-3449 -330 -111 -611 -169 -1056 -221 l-43 -5 0 345 0 345 95 0 95 0 0 113 0
112 47 25 c25 13 59 43 75 65 16 22 32 40 34 40 5 0 138 -300 149 -336 5 -13
-39 -48 -200 -160 l-205 -142 0 -144 c0 -92 4 -143 10 -143 6 0 78 47 161 105
139 98 156 106 227 121 207 42 445 110 523 150 59 29 127 97 160 160 32 58 53
153 45 198 -6 32 -6 32 78 70 l85 38 38 -31 c61 -49 129 -74 214 -79 137 -8
232 38 490 240 264 208 377 318 421 414 19 41 23 66 23 154 0 95 -3 110 -28
157 l-27 53 57 70 c51 65 59 71 82 63 14 -4 67 -8 116 -8 78 0 98 4 150 28
116 54 182 142 329 436 41 80 100 211 132 291 57 140 58 148 58 235 0 118 -27
188 -98 260 -28 29 -59 56 -68 61 -15 8 -15 15 5 98 l22 90 50 11 c153 34 254
144 293 319 20 93 23 651 4 766 -31 185 -152 321 -309 346 l-39 6 -20 88 -20
88 53 46 c95 84 140 194 130 318 -7 81 -73 254 -180 473 -154 312 -218 400
-337 458 -57 28 -74 32 -150 32 -47 0 -99 -4 -116 -8 -30 -8 -34 -5 -87 62
l-57 70 27 53 c21 42 28 71 31 138 5 101 -16 172 -73 249 -57 78 -311 297
-502 433 -72 51 -108 86 -165 159 -147 191 -359 388 -562 521 -48 32 -86 58
-83 58 3 0 65 -25 138 -56z m-3192 -18 c-200 -136 -410 -335 -543 -514 -51
-67 -85 -102 -135 -135 -169 -112 -466 -365 -526 -448 -57 -77 -78 -148 -73
-249 3 -67 10 -96 31 -139 l27 -53 -56 -70 c-56 -69 -57 -70 -93 -61 -20 4
-72 8 -116 8 -197 -1 -299 -108 -498 -525 -107 -223 -157 -359 -164 -438 -10
-124 35 -234 130 -318 l53 -47 -19 -87 -20 -88 -40 -6 c-156 -25 -278 -161
-309 -346 -19 -115 -16 -673 4 -766 39 -175 140 -285 293 -319 l50 -11 22 -90
c19 -78 20 -90 7 -97 -107 -60 -183 -219 -170 -355 7 -78 87 -284 192 -493
147 -294 209 -378 322 -435 51 -25 67 -29 152 -29 52 0 107 4 121 8 23 8 31 2
82 -62 l56 -70 -27 -58 c-24 -51 -27 -70 -27 -158 0 -87 3 -107 26 -155 46
-99 201 -245 499 -469 180 -136 257 -174 370 -179 100 -5 171 17 246 75 l46
34 84 -37 c84 -38 84 -38 78 -70 -8 -45 13 -140 44 -198 36 -65 99 -129 158
-159 81 -41 316 -109 527 -152 74 -14 88 -22 227 -120 82 -58 154 -105 160
-105 6 0 10 50 10 143 l0 143 -205 143 c-172 119 -205 146 -200 162 4 11 39
92 78 181 59 134 73 158 81 143 25 -42 58 -73 100 -96 l46 -24 0 -112 0 -113
95 0 95 0 0 -345 0 -345 -42 5 c-328 38 -496 67 -733 126 -1066 267 -1951 917
-2515 1848 -765 1266 -834 2875 -180 4181 205 410 449 741 791 1075 315 307
656 548 1073 757 135 68 381 177 400 178 6 0 -33 -29 -85 -64z m-873 -1120
c-30 -79 -41 -96 -112 -167 -43 -43 -82 -79 -86 -79 -17 0 -7 88 15 129 18 35
205 216 214 208 1 -2 -13 -42 -31 -91z m4991 -5 c49 -44 90 -90 103 -115 19
-41 28 -126 12 -126 -4 0 -44 37 -88 83 -72 73 -84 91 -110 162 -16 44 -31 84
-33 90 -5 12 9 1 116 -94z m-5154 -552 l24 -11 -1 -236 c0 -243 10 -369 45
-549 l20 -102 -39 -78 c-118 -234 -214 -549 -258 -843 -21 -147 -30 -498 -15
-656 82 -868 544 -1640 1270 -2122 126 -83 364 -208 510 -268 84 -34 99 -44
136 -92 23 -29 59 -86 79 -126 l36 -74 -19 -46 c-24 -54 -28 -55 -134 -21 -94
30 -164 32 -250 5 -65 -20 -176 -92 -195 -127 -10 -17 -16 -15 -89 20 l-78 39
0 106 c0 90 -4 115 -23 157 -41 90 -73 124 -191 207 -136 96 -234 174 -351
281 -146 133 -268 173 -415 133 -33 -8 -69 -18 -80 -20 -15 -4 -30 7 -63 49
-23 30 -45 61 -48 68 -3 8 9 36 25 63 69 112 79 266 24 372 -16 31 -64 122
-106 202 -41 80 -97 197 -122 260 -26 63 -55 131 -65 150 -45 88 -193 180
-302 188 -49 4 -59 8 -63 26 -29 126 -33 151 -26 154 34 12 110 74 146 120 82
104 81 101 80 572 l-1 415 -28 54 c-33 64 -114 153 -168 183 -41 23 -40 15
-13 126 8 30 15 55 17 57 2 1 32 7 68 14 158 27 271 122 329 276 38 102 154
344 233 485 l53 95 0 95 c0 101 -15 158 -62 233 -14 22 -22 44 -19 50 6 16 95
127 101 127 2 0 15 -5 28 -11z m5318 -55 c48 -60 51 -68 39 -88 -61 -97 -85
-188 -77 -287 6 -72 18 -101 87 -219 57 -98 159 -312 201 -425 59 -155 173
-251 332 -277 65 -11 67 -12 77 -47 14 -53 29 -125 27 -127 -1 -1 -20 -13 -42
-26 -59 -37 -120 -104 -157 -173 l-32 -60 -1 -415 c-1 -471 -2 -468 80 -572
36 -46 112 -108 146 -120 7 -3 3 -28 -26 -154 -4 -18 -14 -22 -65 -27 -112
-10 -255 -99 -300 -187 -10 -19 -39 -87 -65 -150 -25 -63 -81 -180 -122 -260
-42 -80 -90 -171 -106 -202 -55 -106 -45 -260 24 -372 16 -27 28 -55 25 -63
-3 -7 -25 -38 -48 -68 -33 -42 -48 -53 -63 -49 -11 2 -47 12 -80 20 -82 22
-184 15 -257 -18 -30 -14 -92 -59 -138 -99 -134 -120 -262 -222 -378 -302
-110 -76 -143 -112 -184 -202 -19 -42 -23 -67 -23 -157 l0 -106 -78 -39 c-73
-35 -79 -37 -89 -20 -20 37 -130 107 -200 128 -86 26 -166 22 -278 -15 l-75
-25 -23 51 -23 50 37 73 c20 41 56 98 79 128 38 47 53 58 126 87 109 43 313
144 414 205 653 392 1126 1033 1306 1769 59 245 74 374 74 671 0 284 -7 365
-51 580 -48 229 -134 486 -226 668 l-39 78 20 102 c35 180 45 306 44 549 0
230 0 237 21 246 32 16 31 17 87 -54z m-5778 -181 c-101 -158 -115 -209 -67
-257 20 -20 36 -26 68 -26 22 0 48 6 57 13 9 7 42 54 74 105 31 50 61 94 66
97 13 9 31 -73 24 -108 -4 -18 -28 -70 -55 -117 -75 -132 -138 -263 -201 -415
-43 -104 -67 -147 -90 -167 -35 -29 -89 -53 -89 -38 0 5 14 46 31 92 44 117
48 140 33 176 -26 63 -121 79 -162 28 -10 -13 -35 -74 -56 -136 l-39 -112 -20
32 c-37 59 -34 113 13 235 82 211 245 530 303 594 26 28 92 60 125 61 22 0 21
-2 -15 -57z m6202 38 c22 -10 50 -29 62 -42 58 -64 221 -383 303 -594 47 -122
50 -176 13 -235 l-20 -32 -39 112 c-21 62 -46 123 -56 136 -42 52 -136 35
-163 -30 -16 -37 -14 -45 34 -174 17 -46 31 -88 31 -93 0 -14 -72 18 -98 44
-12 13 -49 86 -81 162 -63 153 -115 259 -196 405 -29 52 -56 109 -60 127 -7
35 11 117 24 108 5 -3 35 -47 66 -97 32 -51 65 -98 74 -105 30 -23 92 -16 123
14 50 48 37 97 -65 256 -36 55 -37 57 -15 57 13 0 41 -9 63 -19z m-6754 -1586
c-6 -42 -11 -103 -11 -136 0 -79 26 -109 95 -109 61 0 91 31 100 103 3 29 9
81 13 116 4 35 12 66 18 68 7 2 22 -13 35 -34 l24 -38 1 -385 c0 -303 -2 -392
-13 -420 -16 -40 -42 -72 -53 -65 -5 3 -11 44 -15 93 -9 117 -20 157 -52 181
-44 35 -118 22 -143 -25 -13 -24 -9 -178 6 -254 l7 -34 -34 21 c-83 52 -105
187 -96 578 6 281 14 321 73 383 24 25 46 43 50 40 3 -3 1 -41 -5 -83z m7305
43 c58 -63 73 -162 73 -468 0 -339 -21 -444 -98 -493 l-34 -21 6 33 c16 78 20
232 7 255 -25 47 -99 60 -143 25 -32 -24 -43 -64 -52 -181 -4 -49 -10 -90 -15
-93 -9 -6 -33 21 -52 60 -12 25 -14 99 -14 420 l1 390 24 38 c13 21 28 36 35
34 6 -2 14 -33 18 -68 4 -35 10 -88 14 -118 8 -72 36 -101 99 -101 36 0 51 6
72 26 25 26 26 28 20 127 -4 56 -10 119 -13 141 -6 35 -6 38 12 28 10 -6 29
-21 40 -34z m-3676 -1151 c95 0 168 5 213 15 63 15 68 15 62 -1 -77 -195 -101
-384 -71 -543 28 -147 132 -385 229 -526 67 -97 205 -226 303 -283 120 -70
120 -70 68 26 -25 47 -42 85 -37 85 4 0 22 -9 39 -19 56 -34 173 -71 255 -80
345 -39 673 174 775 504 18 55 19 57 25 30 12 -56 9 -190 -6 -254 -32 -135
-143 -289 -279 -386 -33 -24 -146 -89 -251 -145 -234 -126 -390 -227 -478
-310 l-68 -63 51 89 c85 147 155 246 220 312 34 34 57 62 51 62 -18 0 -133
-46 -201 -80 -91 -46 -186 -109 -247 -164 -46 -42 -53 -45 -61 -29 -6 10 -116
263 -246 563 -244 563 -259 590 -321 606 -14 3 -36 3 -50 0 -62 -16 -77 -43
-321 -606 -130 -300 -240 -553 -246 -563 -8 -16 -15 -13 -61 29 -68 61 -145
113 -237 159 -78 39 -192 85 -212 85 -6 0 17 -28 51 -62 66 -66 135 -164 221
-312 l51 -89 -68 63 c-89 84 -246 185 -478 310 -104 56 -217 121 -251 145
-136 97 -247 250 -279 386 -15 64 -18 198 -6 254 6 27 7 25 25 -30 102 -329
431 -543 773 -504 84 9 201 46 257 80 17 10 35 19 39 19 5 0 -12 -39 -38 -86
-53 -98 -53 -98 68 -26 99 58 238 188 304 284 97 141 201 379 229 526 30 159
6 348 -71 543 -6 16 -1 16 62 1 45 -10 118 -15 213 -15z m-3231 -398 c49 -28
64 -50 110 -165 57 -144 119 -274 190 -398 74 -132 87 -174 69 -235 l-13 -44
-64 102 c-35 56 -73 108 -84 116 -33 23 -81 18 -116 -11 -26 -21 -31 -33 -31
-68 0 -35 11 -60 64 -144 62 -98 64 -102 40 -102 -33 0 -93 32 -125 67 -78 85
-320 589 -335 698 -7 45 9 117 30 134 11 9 21 -9 52 -96 44 -125 74 -163 127
-163 42 0 92 38 99 75 3 14 -11 72 -33 136 -22 62 -39 114 -39 116 0 9 26 1
59 -18z m6521 18 c0 -2 -17 -54 -39 -116 -22 -64 -36 -122 -33 -136 7 -37 57
-75 99 -75 53 0 83 38 127 163 31 88 41 106 51 95 17 -18 35 -75 35 -110 0
-87 -254 -629 -339 -721 -32 -35 -92 -67 -125 -67 -24 0 -22 4 40 102 53 84
64 109 64 144 0 35 -5 47 -31 68 -20 17 -42 26 -66 26 -44 0 -79 -35 -147
-149 -56 -93 -69 -92 -69 8 -1 51 6 67 73 186 73 129 153 297 204 430 31 80
49 105 97 134 30 19 59 27 59 18z m-4752 -356 c132 -43 358 -96 565 -132 70
-13 127 -26 127 -30 0 -17 -124 -119 -172 -142 -188 -88 -429 -38 -564 117
-63 71 -134 250 -93 233 8 -3 69 -24 137 -46z m3069 13 c-3 -20 -19 -64 -35
-98 -109 -229 -396 -329 -630 -219 -48 22 -172 125 -172 142 0 4 82 22 183 40
214 39 450 97 562 139 44 16 84 30 89 31 5 0 6 -15 3 -35z m-1365 -852 c130
-301 240 -554 243 -563 5 -13 -3 -15 -55 -11 -131 10 -233 -72 -255 -206 -16
-96 44 -206 134 -247 40 -17 41 -19 41 -67 l0 -48 -95 0 -95 0 0 -411 0 -410
-47 3 -48 3 -3 692 -2 693 33 14 c93 38 153 138 144 237 -12 135 -105 223
-237 223 -253 0 -333 -344 -105 -454 l45 -22 -2 -691 -3 -692 -47 -3 -48 -3 0
410 0 411 -95 0 -95 0 0 48 c0 48 1 50 41 67 90 41 150 151 134 247 -22 133
-125 215 -255 206 -52 -4 -60 -2 -55 11 21 58 481 1110 485 1110 3 0 112 -246
242 -547z m-2635 -127 c20 -8 70 -46 111 -83 118 -107 258 -219 374 -299 85
-59 111 -82 127 -116 20 -42 28 -87 14 -87 -3 0 -48 27 -100 60 -73 47 -102
60 -132 60 -54 0 -91 -38 -91 -94 0 -53 13 -67 129 -141 50 -33 91 -62 91 -67
0 -12 -67 -21 -112 -15 -46 6 -101 41 -283 178 -185 139 -345 284 -372 339
-23 44 -32 130 -14 130 5 0 19 -12 31 -27 12 -16 53 -56 91 -90 58 -52 76 -63
105 -63 52 0 94 45 94 101 0 39 -5 47 -85 127 -47 47 -85 89 -85 94 0 13 68 9
107 -7z m4893 6 c0 -5 -38 -47 -85 -93 -80 -80 -85 -88 -85 -127 0 -56 42
-101 94 -101 29 0 48 11 110 65 41 36 81 77 90 90 24 37 36 30 36 -20 0 -71
-30 -115 -153 -226 -210 -189 -459 -367 -525 -376 -44 -6 -112 3 -112 15 0 5
41 34 91 67 116 74 129 88 129 141 0 56 -37 94 -91 94 -29 0 -58 -13 -125 -56
-47 -30 -92 -58 -100 -61 -21 -8 -18 33 7 84 16 34 42 57 128 117 120 83 246
183 367 293 45 40 96 79 115 87 37 17 109 21 109 7z m-2450 -116 c41 -21 60
-53 60 -101 0 -51 -27 -88 -75 -104 -73 -24 -145 27 -145 102 0 50 13 74 53
98 38 24 68 25 107 5z m-388 -494 c29 -26 33 -35 33 -80 0 -66 -32 -101 -96
-108 -85 -8 -141 59 -118 142 22 77 119 102 181 46z m821 9 c57 -45 53 -144
-6 -181 -44 -28 -110 -21 -146 15 -21 22 -26 36 -26 77 0 45 4 54 33 80 41 36
105 40 145 9z m-1483 -231 l69 -21 -22 -46 c-12 -26 -22 -48 -23 -50 -1 -2
-13 3 -26 11 -12 8 -67 29 -120 47 -54 17 -98 36 -98 41 0 16 62 38 108 39 24
0 75 -9 112 -21z m2185 7 c19 -8 35 -19 35 -25 0 -5 -44 -24 -97 -41 -54 -18
-109 -39 -121 -47 -13 -8 -25 -13 -26 -11 -1 2 -11 24 -23 50 l-22 47 62 19
c76 24 146 27 192 8z m-2348 -262 c108 -37 111 -38 102 -62 -5 -13 -9 -34 -9
-47 0 -22 -2 -23 -37 -13 -50 14 -113 45 -141 72 -40 35 -69 104 -39 93 6 -3
62 -22 124 -43z m2463 36 c0 -19 -27 -64 -52 -86 -28 -27 -91 -58 -140 -72
-37 -10 -38 -10 -39 16 0 15 -4 36 -8 47 -7 18 3 24 108 61 135 48 131 47 131
34z"/>
<path d="M9753 8820 c-365 -38 -591 -158 -693 -366 l-35 -71 -76 -7 c-184 -15
-345 -82 -450 -186 -112 -111 -155 -233 -146 -410 3 -58 12 -127 20 -153 l15
-48 -66 -67 c-118 -118 -172 -253 -172 -432 0 -242 116 -479 302 -615 l56 -42
-35 -49 c-73 -101 -104 -200 -104 -333 1 -322 253 -600 646 -711 172 -49 300
-116 395 -206 43 -41 104 -107 137 -145 72 -88 169 -162 248 -190 84 -30 266
-38 355 -15 108 27 167 63 250 151 225 238 262 271 371 324 57 27 154 64 214
81 255 72 434 198 554 391 61 98 84 176 89 302 4 95 1 117 -21 190 -16 51 -43
107 -71 146 l-44 64 56 42 c185 136 301 374 302 615 0 175 -57 318 -170 430
l-68 67 15 54 c8 30 17 99 20 154 9 171 -35 293 -147 405 -104 104 -266 171
-454 187 -73 6 -75 7 -86 37 -19 54 -92 156 -148 206 -101 90 -235 146 -432
181 -131 23 -485 34 -627 19z m127 -370 c0 -186 -4 -194 -196 -328 -239 -167
-315 -298 -301 -517 6 -80 16 -130 81 -362 11 -42 12 -54 1 -63 -10 -8 -56 33
-196 174 -154 155 -190 185 -221 191 -84 16 -148 -38 -148 -124 0 -43 2 -45
208 -255 223 -227 303 -331 359 -467 46 -110 67 -225 60 -334 -6 -102 -35
-208 -58 -213 -18 -3 -115 78 -153 131 -51 68 -38 135 45 241 31 38 39 57 39
88 0 103 -112 163 -192 102 -39 -29 -97 -110 -131 -181 -29 -63 -32 -76 -32
-168 0 -169 34 -218 329 -473 232 -201 396 -360 455 -442 l46 -64 3 -184 3
-184 -42 24 c-23 13 -79 65 -124 118 -92 106 -183 194 -251 241 -77 52 -243
126 -373 164 -139 41 -180 59 -267 121 -77 55 -135 123 -175 207 -53 115 -49
226 13 323 l30 48 19 -25 c10 -13 28 -49 40 -79 18 -47 20 -68 15 -149 -5 -76
-3 -99 11 -121 22 -38 64 -60 113 -60 151 0 175 295 43 519 -50 84 -157 191
-268 268 -102 70 -138 105 -187 183 -63 99 -82 163 -82 275 -1 93 1 105 31
166 18 35 43 75 56 88 l25 22 41 -57 c45 -63 66 -123 56 -161 -3 -14 -25 -45
-49 -69 -55 -55 -63 -92 -36 -150 20 -41 66 -74 104 -74 60 0 153 81 195 170
23 48 26 68 26 155 0 120 -17 166 -109 289 -143 193 -179 353 -110 493 25 53
80 106 141 137 35 17 145 46 179 46 20 0 21 -3 12 -42 -20 -91 -52 -117 -141
-118 -62 0 -70 -3 -102 -32 -45 -41 -55 -90 -30 -142 26 -55 64 -71 165 -71
109 1 176 31 249 110 57 63 86 131 107 250 27 155 37 191 64 246 48 93 137
160 269 200 79 23 217 46 294 48 l47 1 0 -130z m395 119 c113 -14 245 -52 310
-89 117 -67 164 -150 201 -357 31 -167 62 -240 134 -307 74 -69 127 -90 230
-91 101 0 139 16 165 71 25 52 15 101 -30 142 -32 29 -40 32 -102 32 -90 1
-121 27 -142 119 l-9 43 48 -6 c175 -23 292 -115 321 -254 25 -119 -22 -263
-138 -418 -78 -106 -105 -170 -111 -265 -8 -128 41 -243 131 -309 80 -59 158
-46 197 34 27 58 19 95 -36 150 -24 24 -46 55 -49 69 -10 38 11 98 56 161 l41
57 25 -22 c40 -39 83 -137 89 -209 8 -89 -9 -170 -56 -266 -51 -104 -107 -166
-217 -240 -108 -72 -216 -180 -266 -265 -132 -224 -108 -519 43 -519 97 0 132
52 123 185 -4 76 -2 98 16 145 12 30 30 66 40 79 l19 24 26 -40 c58 -87 70
-183 35 -285 -61 -183 -197 -292 -474 -379 -296 -95 -407 -167 -607 -396 -53
-61 -106 -112 -130 -124 l-39 -20 3 183 3 184 47 64 c59 83 201 221 449 437
220 193 267 242 306 322 25 50 28 67 28 157 0 96 -2 103 -38 177 -21 43 -62
103 -92 135 -51 55 -55 57 -105 57 -47 0 -55 -3 -86 -37 -28 -31 -34 -46 -34
-82 0 -35 7 -52 39 -92 109 -138 101 -212 -35 -327 -32 -26 -64 -47 -73 -45
-23 5 -52 111 -58 214 -7 109 14 224 60 333 56 135 134 238 358 466 204 208
209 214 209 255 0 56 -22 94 -66 115 -79 37 -115 14 -342 -221 -114 -117 -145
-144 -156 -135 -12 10 -12 20 0 64 67 241 75 280 81 367 13 215 -57 335 -294
506 -201 145 -203 147 -203 334 l0 130 33 0 c17 0 73 -5 122 -11z"/>
</g>
</svg>
